# xmcd
#
# Track frame offsets:
#	150
#	14998
#	30999
#	45986
#	59907
#	75967
#	88276
#	100410
#	113784
#	127187
#	141380
#	158791
#	177477
#	193279
#	209541
#	222191
#	235593
#	252555
#	267699
#
# Disc length: 3783 seconds
#
# Revision: 0
# Processed by: cddbd v1.5.2PL0 Copyright (c) Steve Scherf et al.
# Submitted via: EZCDAudioConverter 4.0.7.1
#
DISCID=280ec513
DTITLE=Maria Cecília and Rodolfo
DYEAR=2014
DGENRE=Sertanejo
TTITLE0=Espalhe Amor
TTITLE1=Mil Desejos
TTITLE2=Já Virou Amor
TTITLE3=Quem Ama Cuida
TTITLE4=Só de Pensar (Part. Jorge and Mateus)
TTITLE5=Os Dias Vão
TTITLE6=O Troco (Part. Exaltasamba)
TTITLE7=Tchau Tchau
TTITLE8=Cada Dia Mais
TTITLE9=Arrocha e Vem Comigo
TTITLE10=Amor de Sobremessa
TTITLE11=Imprevisível (Part. Zezé Di Camargo and Luciano)
TTITLE12=Coisas Exotéricas
TTITLE13=Nunca Mais Me Deixe
TTITLE14=Voa Voa (Part. Munhoz and Mariano)
TTITLE15=Amor Transparente
TTITLE16=Amuleto da Sorte
TTITLE17=Você de Volta
TTITLE18=A Fila Andou
EXTD=
EXTT0=
EXTT1=
EXTT2=
EXTT3=
EXTT4=
EXTT5=
EXTT6=
EXTT7=
EXTT8=
EXTT9=
EXTT10=
EXTT11=
EXTT12=
EXTT13=
EXTT14=
EXTT15=
EXTT16=
EXTT17=
EXTT18=
PLAYORDER=
